<?xml version="1.0" encoding="UTF-8"?>
<svg id="Ebene_1" data-name="Ebene 1" xmlns="http://www.w3.org/2000/svg" viewBox="0 0 702.7 114.4">
  <defs>
    <style>
      .cls-1 {
        fill: #d50032;
      }
    </style>
  </defs>
  <path class="cls-1" d="m23.7.1h85.6c15.5,0,23.7,7.1,23.7,26.9,0,23.6-11.1,46-28.8,59.4l9.6,16.2-20.5,11.8-10.3-17.5c-5.3,1.4-10.8,2.2-16.5,2.2C28.1,99.1,0,64.3,0,26.9,0,7.2,8.2.1,23.7.1Zm47.1,76l-11.4-19.4,20.5-11.8,11.4,19.4c7.8-8.9,12.6-21.7,12.6-35.9,0-3.3-1.2-5.1-4.6-5.1H33.6c-3.3,0-4.6,1.8-4.6,5.1,0,26,16.5,47.9,37.4,47.9,1.5.1,3,.1,4.4-.2Z"/>
  <path class="cls-1" d="m152.8,97.1V.1h103.5l5.1,22.2h-79.5v15.9h75.9l-4.8,20.8h-71.1v15.9h81l-5.1,22.2h-105Z"/>
  <path class="cls-1" d="m279.1,97.1l5.3-23h69.7c2.8,0,4.4-1.4,4.4-3.6,0-3.5-2.8-5.1-11.8-7.1l-38.8-8.5c-12.3-2.6-26-10.5-26-30.5,0-13.7,6.7-24.4,24.1-24.4h72l5.4,23h-68.6c-2.8,0-4.4,1.4-4.4,3.6,0,2.8,2.4,4.4,5.8,5.1l38.8,8.5c14.8,3.2,32,9.3,32,31.4,0,14.7-6.8,25.4-24.1,25.4h-83.8v.1h0Z"/>
  <path class="cls-1" d="m440.2,97.1V23.4h-47L398.6.1h112.2l5.4,23.3h-47v73.7h-29Z"/>
  <path class="cls-1" d="m533.4,97.1V.1h29.1v97h-29.1Z"/>
  <path class="cls-1" d="m626.7,97.1V23.4h-47L585.1.1h112.2l5.4,23.3h-47v73.7h-29Z"/>
</svg>